<svg width="64" height="64" xmlns="http://www.w3.org/2000/svg" xml:space="preserve" version="1.1">
 <g>
  <title>Layer 1</title>
  <g id="Слой_1_00000142169845034383894270000013176815818819045044_">
   <g id="svg_1">
    <g id="svg_2">
     <polygon id="svg_3" fill="#4A4A4A" points="12.8,38.4 12.8,12.8 0,12.8 0,51.2 25.6,51.2 25.6,38.4    " class="st0"/>
     <path id="svg_4" fill="#EA3382" d="m43.4,26.3c0.9,-2.2 1.4,-4.6 1.4,-7.1c0,-10.6 -8.6,-19.2 -19.2,-19.2l-12.8,0l0,12.8l12.8,0c3.5,0 6.4,2.9 6.4,6.4s-2.9,6.4 -6.4,6.4l0,12.8l12.8,0c3.5,0 6.4,2.9 6.4,6.4s-2.9,6.4 -6.4,6.4l-12.8,0l0,12.8l12.8,0c10.6,0 19.2,-8.6 19.2,-19.2c0,-8.9 -6,-16.3 -14.2,-18.5z" class="st1"/>
    </g>
   </g>
  </g>
  <g id="Слой_2_00000034083244168551985490000007152580187269923715_"/>
 </g>
</svg>
