<svg width="64" height="64" viewBox="0 0 64 64" fill="none" xmlns="http://www.w3.org/2000/svg">
<circle r="32" transform="matrix(1 0 0 -1 32 32)" fill="white"/>
<path d="M23.5161 37.0091V21.2253H16V44.901H31.0321V37.0091H23.5161Z" fill="#4A4A4A"/>
<path d="M41.4837 29.5486C42.0122 28.1922 42.3058 26.7125 42.3058 25.1711C42.3058 18.6356 37.2559 13.3333 31.0317 13.3333H23.5156V21.2251H31.0317C33.0869 21.2251 34.7897 23.0131 34.7897 25.1711C34.7897 27.329 33.0869 29.117 31.0317 29.117V37.0089H38.5478C40.6029 37.0089 42.3058 38.7969 42.3058 40.9548C42.3058 43.1128 40.6029 44.9008 38.5478 44.9008H31.0317V52.7926H38.5478C44.772 52.7926 49.8219 47.4903 49.8219 40.9548C49.8219 35.4675 46.2987 30.905 41.4837 29.5486Z" fill="#EA3382"/>
</svg>
