<svg width="64" height="64" viewBox="0 0 64 64" fill="none" xmlns="http://www.w3.org/2000/svg">
<circle r="32" transform="matrix(1 0 0 -1 32 32)" fill="white"/>
<path d="M24.3812 35.1999V22.3999H18.2859V41.5999H30.4764V35.1999H24.3812Z" fill="#4A4A4A"/>
<path d="M38.9522 29.15C39.3807 28.05 39.6188 26.85 39.6188 25.6C39.6188 20.3 35.5236 16 30.476 16H24.3807V22.4H30.476C32.1426 22.4 33.5236 23.85 33.5236 25.6C33.5236 27.35 32.1426 28.8 30.476 28.8V35.2H36.5712C38.2379 35.2 39.6188 36.65 39.6188 38.4C39.6188 40.15 38.2379 41.6 36.5712 41.6H30.476V48H36.5712C41.6188 48 45.7141 43.7 45.7141 38.4C45.7141 33.95 42.8569 30.25 38.9522 29.15Z" fill="#EA3382"/>
</svg>
