<svg width="512" height="512" viewBox="0 0 512 512" fill="none" xmlns="http://www.w3.org/2000/svg">
<path fill-rule="evenodd" clip-rule="evenodd" d="M350.463 120.514C319.206 176.64 287.076 223.916 254.487 261.517C221.576 229.465 186.412 184.435 147.847 125.008C175.242 87.3149 210.774 62.37 247.776 61.0402C279.998 59.8938 318.517 83.3714 350.463 120.514ZM231.247 309.263L236.349 451C143.539 442.701 83.2289 368.966 98.3065 252.724C101.846 225.395 109.385 198.799 119.866 174.588C119.866 174.588 174.981 259.832 231.247 309.263ZM282.001 306.95L287.104 449.192C379.04 434.335 433.972 356.428 410.62 241.561C405.242 215.103 395.359 189.7 382.626 166.681C349.988 222.486 316.294 269.441 282.001 306.95Z" fill="url(#paint0_linear_429_1994)"/>
<defs>
<linearGradient id="paint0_linear_429_1994" x1="271.698" y1="-532.358" x2="-597.902" y2="140.589" gradientUnits="userSpaceOnUse">
<stop stop-color="#68F7AA"/>
<stop offset="1" stop-color="#19B5A2"/>
</linearGradient>
</defs>
</svg>
