<svg width="64" height="64" viewBox="0 0 64 64" fill="none" xmlns="http://www.w3.org/2000/svg">
<circle cx="32" cy="32" r="32" fill="#129960"/>
<path d="M49.1736 22.5699C49.7565 21.6194 50.0575 20.531 50.0479 19.4189C50.0336 16.5293 47.9697 13.7823 44.8403 13.2881C42.7286 12.9459 40.5882 13.6968 39.1645 15.2842C37.8268 16.7765 37.4111 18.7203 37.7312 20.6689C37.802 21.0957 37.8783 21.5239 37.9547 21.9519C38.1928 23.2872 38.4305 24.6202 38.4956 25.9015C38.5482 26.9613 38.51 28.0211 38.3858 29.0715C36.2597 28.8006 34.1337 28.6722 31.9981 28.6722C29.872 28.6722 27.7508 28.7958 25.6247 29.0667C25.4957 28.0116 25.4575 26.9518 25.5101 25.8872C25.5753 24.6085 25.8133 23.2725 26.0516 21.935C26.1278 21.5078 26.2039 21.0803 26.2745 20.6546C26.5946 18.706 26.1789 16.7622 24.8412 15.2699C23.4127 13.6873 21.2676 12.9364 19.1559 13.2833C16.0456 13.7918 13.9721 16.5388 13.953 19.4237C13.9435 20.5358 14.2445 21.6241 14.8273 22.5747C15.6179 23.8686 16.8212 24.8784 17.9895 25.8587C18.2544 26.081 18.5175 26.3018 18.7736 26.5241C19.3995 27.0754 20.3455 28.3253 21.129 29.8509C17.7178 30.6113 14.2779 31.7662 10.7711 33.3678C5.2721 35.8867 4.38824 42.6259 10.0258 44.8026C13.1313 45.929 16.2081 44.1848 17.6939 41.2524C21.6068 33.5389 29.0073 32.7215 31.9981 32.7215C33.2116 32.7215 35.1609 32.8545 37.3012 33.5342C36.5082 35.6348 35.3711 37.2507 32.9966 37.6167C32.8589 37.6383 32.4488 37.6545 32.1776 37.6651C32.0914 37.6685 32.0192 37.6714 31.9742 37.6737C31.7879 37.6832 31.2002 37.6452 31.0187 37.6167C29.2414 37.3458 28.1521 36.3667 27.3877 35.0075C26.0882 35.3972 24.7027 36.015 23.3745 36.9608C23.6507 38.1499 23.9705 39.9234 24.2791 41.6345C24.5575 43.1786 24.8268 44.6719 25.0467 45.6391C26.0117 49.9307 28.9643 50.9002 31.9216 51H32.0268C33.503 50.9525 34.9936 50.6816 36.2358 49.8926C37.4732 49.099 38.467 47.7825 38.9495 45.6391C39.1619 44.6955 39.4225 43.2519 39.6937 41.7493C40.0386 39.8384 40.4007 37.8322 40.7029 36.6376L40.7165 36.5833C41.0942 35.0757 41.4729 33.5639 41.9403 32.0846C42.7191 29.6085 44.31 27.3178 45.2273 26.5193C45.4915 26.2891 45.7632 26.0608 46.0367 25.831C47.1971 24.8559 48.3887 23.8545 49.1736 22.5699Z" fill="white"/>
<path d="M46.307 41.2476C47.7977 44.18 50.8744 45.9242 53.9751 44.7978C59.6127 42.6211 58.7288 35.882 53.2203 33.3631C50.2677 32.0133 47.3629 30.9868 44.4868 30.2406C44.1046 30.9392 43.7462 31.7329 43.4835 32.5646C43.1013 33.7908 42.7668 35.0693 42.4515 36.3239C43.8943 37.5264 45.2321 39.128 46.307 41.2476Z" fill="white"/>
</svg>
