<svg width="32" height="32" fill="none" xmlns="http://www.w3.org/2000/svg">
    <circle cx="16" cy="16" r="16" fill="url(#a)"/>
    <mask id="c" style="mask-type:alpha" maskUnits="userSpaceOnUse" x="0" y="0" width="32" height="32">
        <circle cx="16" cy="16" r="16" fill="url(#b)"/>
    </mask>
    <g mask="url(#c)">
        <g filter="url(#d)">
            <path d="M7.84 5.762c8.1-1.384 16.821 3.77 19.481 11.51 2.66 7.741-1.75 15.138-9.849 16.522-8.099 1.383-16.82-3.77-19.48-11.511S-.258 7.145 7.84 5.762z" fill="url(#e)"/>
        </g>
        <g filter="url(#f)">
            <path d="M27.178 22.05c-6.322 5.248-16.452 5.145-22.625-.229-6.174-5.373-6.054-13.984.269-19.232 6.322-5.247 16.452-5.145 22.625.229 6.174 5.374 6.054 13.984-.268 19.232z" fill="url(#g)"/>
        </g>
        <path d="M20.327 9.628a2.112 2.112 0 0 0-1.912.676c-.45.506-.591 1.164-.483 1.824.098.595.229 1.198.258 1.771.04.864-.09 1.726-.387 2.538-.267.734-.649 1.304-1.466 1.43-.061.01-.282.016-.345.02-.062.003-.26-.01-.322-.02-.818-.125-1.203-.695-1.47-1.434a6.506 6.506 0 0 1-.386-2.538c.03-.57.16-1.175.258-1.771.108-.66-.032-1.318-.483-1.824a2.112 2.112 0 0 0-1.916-.672c-1.049.17-1.747 1.102-1.753 2.078-.003.376.1.746.295 1.067.326.538.862.93 1.33 1.338.309.273.844 1.046 1.106 1.884.159.508.288 1.022.416 1.542.18.723.428 2.322.59 3.047.325 1.453 1.32 1.782 2.317 1.816h.035c.997-.034 2.008-.364 2.334-1.816.162-.726.408-2.325.59-3.048.128-.517.257-1.034.416-1.541.262-.838.797-1.615 1.107-1.884.467-.41 1.002-.8 1.329-1.339a2.02 2.02 0 0 0 .295-1.067c-.006-.978-.701-1.91-1.753-2.077z" fill="#fff"/>
    </g>
    <defs>
        <linearGradient id="a" x1="2.609" y1="4.348" x2="26.435" y2="28.87" gradientUnits="userSpaceOnUse">
            <stop stop-color="#649A66"/>
            <stop offset="1" stop-color="#2B4CCF"/>
        </linearGradient>
        <linearGradient id="b" x1="2.609" y1="4.348" x2="26.435" y2="28.87" gradientUnits="userSpaceOnUse">
            <stop stop-color="#649A66"/>
            <stop offset="1" stop-color="#2B4CCF"/>
        </linearGradient>
        <linearGradient id="e" x1="8.64" y1="32.48" x2="12.754" y2="20.464" gradientUnits="userSpaceOnUse">
            <stop stop-color="#8FEBFF"/>
            <stop offset="1" stop-color="#2B4CCF" stop-opacity="0"/>
        </linearGradient>
        <linearGradient id="g" x1="14.431" y1="1.402" x2="14.179" y2="26.309" gradientUnits="userSpaceOnUse">
            <stop stop-color="#49F150"/>
            <stop offset="1" stop-color="#2B4CCF" stop-opacity="0"/>
        </linearGradient>
        <filter id="d" x="-12.783" y="-4.463" width="50.879" height="48.481" filterUnits="userSpaceOnUse" color-interpolation-filters="sRGB">
            <feFlood flood-opacity="0" result="BackgroundImageFix"/>
            <feBlend in="SourceGraphic" in2="BackgroundImageFix" result="shape"/>
            <feGaussianBlur stdDeviation="5" result="effect1_foregroundBlur_10795_6485"/>
        </filter>
        <filter id="f" x="-10" y="-11.28" width="52" height="47.2" filterUnits="userSpaceOnUse" color-interpolation-filters="sRGB">
            <feFlood flood-opacity="0" result="BackgroundImageFix"/>
            <feBlend in="SourceGraphic" in2="BackgroundImageFix" result="shape"/>
            <feGaussianBlur stdDeviation="5" result="effect1_foregroundBlur_10795_6485"/>
        </filter>
    </defs>
</svg>
